<?xml version="1.0" standalone="no"?>
<!DOCTYPE svg PUBLIC "-//W3C//DTD SVG 20010904//EN"
 "http://www.w3.org/TR/2001/REC-SVG-20010904/DTD/svg10.dtd">
<svg version="1.0" xmlns="http://www.w3.org/2000/svg"
 width="187.000000pt" height="187.000000pt" viewBox="0 0 187.000000 187.000000"
 preserveAspectRatio="xMidYMid meet">
<metadata>
Created by potrace 1.11, written by Peter Selinger 2001-2013
</metadata>
<g transform="translate(0.000000,187.000000) scale(0.100000,-0.100000)"
fill="#000000" stroke="none">
<path d="M891 1801 c-43 -28 -54 -54 -67 -166 -11 -101 -11 -138 2 -195 7 -30
13 -58 14 -62 0 -3 -35 -4 -77 -1 -229 16 -419 -123 -503 -367 -28 -82 -39
-261 -20 -352 53 -265 209 -480 420 -575 93 -41 219 -60 260 -38 19 10 28 10
38 2 8 -6 44 -11 80 -11 88 -1 184 36 277 106 357 270 431 855 144 1140 -127
125 -294 162 -470 104 l-67 -22 -6 51 c-3 28 -3 74 1 103 l6 53 141 -4 c78 -2
151 -7 164 -12 37 -13 27 21 -28 89 -27 33 -56 66 -63 71 -37 28 -99 55 -127
55 -27 0 -30 2 -24 25 3 14 2 25 -2 26 -5 0 -19 2 -31 3 -12 1 -40 -9 -62 -23z"/>
</g>
</svg>
